<?xml version="1.0" encoding="utf-8"?>
<!-- Svg Vector Icons : http://www.onlinewebfonts.com/icon -->
<!DOCTYPE svg PUBLIC "-//W3C//DTD SVG 1.1//EN" "http://www.w3.org/Graphics/SVG/1.1/DTD/svg11.dtd">
<svg version="1.1" xmlns="http://www.w3.org/2000/svg" xmlns:xlink="http://www.w3.org/1999/xlink" x="0px" y="0px" viewBox="0 0 1000 1000" enable-background="new 0 0 1000 1000" xml:space="preserve">
<metadata> Svg Vector Icons : http://www.onlinewebfonts.com/icon </metadata>
<g><path d="M800.9,396.4L700,631.7c-5.3,12.4-17,19.7-29.4,20.2c-0.5,0-2.5,0-3,0c-12.5-0.4-24.3-7.8-29.6-20.2l-87.4-202.4v189c0,18.7-15.1,33.8-33.8,33.8c-18.7,0-33.8-15.1-33.8-33.8V517.5l-67.9,117.6c-6.5,11.3-18.5,17.2-30.7,16.7c-11.6,0.5-23.1-5.5-29.4-16.7l-74.9-135.5v118.7c0,18.7-15.1,33.8-33.8,33.8c-18.7,0-33.8-15.1-33.8-33.8V381.7c0-18.7,15.1-33.8,33.8-33.8c14.3,0,26.5,9,31.4,21.6c4.8,2.9,106.6,183.5,106.6,183.5l98.6-170.7c0,0,15.1-34.4,33.8-34.4c10.2,0,19.3,4.6,25.5,11.8c3.1-3.6,7-6.6,11.6-8.7c17.1-7.8,37.1,0,44.5,17.3L669.1,532l70.2-163.6c7.4-17.3,27.3-25.1,44.3-17.3C800.6,358.8,808.3,379.1,800.9,396.4z"/><path d="M922.4,280.3c0-84-68.1-152.1-152.1-152.1H229.7c-84,0-152.1,68.1-152.1,152.1v439.3c0,84,68.1,152.1,152.1,152.1h540.7c84,0,152.1-68.1,152.1-152.1L922.4,280.3L922.4,280.3z M787.2,939.3H212.8c-112,0-202.8-90.8-202.8-202.8V263.4c0-112,90.8-202.8,202.8-202.8h574.5c112,0,202.8,90.8,202.8,202.8v473.1C990,848.5,899.2,939.3,787.2,939.3z"/></g>
</svg>